<?xml version="1.0" encoding="UTF-8" ?>
<!DOCTYPE svg PUBLIC "-//W3C//DTD SVG 1.1//EN" "http://www.w3.org/Graphics/SVG/1.1/DTD/svg11.dtd">
<svg width="1024pt" height="1024pt" viewBox="0 0 1024 1024" version="1.1" xmlns="http://www.w3.org/2000/svg">
<g id="#1e293aff">
<path fill="#1e293a" opacity="1.00" d=" M 485.48 22.64 C 521.43 21.14 557.64 22.40 593.09 28.91 C 633.04 35.75 672.36 46.94 709.36 63.60 C 777.86 93.49 839.09 139.70 887.09 196.94 C 930.88 248.92 963.56 310.16 982.49 375.43 C 999.20 433.20 1005.33 494.06 1000.07 553.98 C 992.95 638.32 963.37 720.62 915.22 790.22 C 872.33 852.31 815.01 904.39 748.93 940.88 C 712.67 960.99 673.74 976.27 633.62 986.66 C 611.29 992.05 588.69 996.38 565.87 998.97 C 540.36 1002.15 514.61 1002.27 488.95 1001.53 C 455.96 1000.01 423.26 994.56 391.18 986.86 C 327.87 970.68 267.72 941.94 215.81 902.20 C 158.02 858.37 110.12 801.52 76.86 737.07 C 40.21 666.37 21.19 586.61 22.12 506.98 C 22.91 417.21 49.07 327.83 96.90 251.85 C 134.60 191.65 185.55 139.85 245.08 101.10 C 277.02 80.25 311.56 63.48 347.37 50.40 C 391.84 34.94 438.44 25.33 485.48 22.64 M 462.01 164.42 C 424.68 169.10 388.17 179.91 354.24 196.16 C 322.31 211.08 293.26 231.65 267.06 255.11 C 229.28 289.63 199.65 332.78 179.99 379.97 C 168.16 408.39 159.77 438.34 156.06 468.94 C 149.35 517.18 152.62 566.89 166.32 613.66 C 177.26 651.84 194.39 688.29 217.12 720.88 C 218.71 722.73 220.11 725.66 222.96 725.45 C 231.91 725.52 240.89 725.71 249.83 725.09 C 245.14 717.31 238.91 710.63 233.93 703.05 C 220.87 684.22 209.80 664.00 201.31 642.71 C 183.70 600.88 176.06 555.23 176.28 509.97 C 177.57 452.34 193.46 394.86 223.51 345.54 C 241.36 316.38 263.51 289.79 289.22 267.23 C 330.80 230.66 381.62 204.55 435.75 192.70 C 480.29 182.88 526.75 182.39 571.65 190.21 C 644.77 203.12 713.36 240.70 763.30 295.69 C 789.78 323.97 810.11 357.70 824.38 393.65 C 838.75 428.60 845.93 466.26 847.44 503.95 C 847.95 521.68 847.82 539.49 845.42 557.10 C 839.47 606.31 822.10 653.92 795.88 695.92 C 789.55 706.09 782.10 715.48 775.25 725.28 C 785.12 725.62 795.01 725.63 804.87 725.20 C 829.70 688.93 849.12 648.69 859.92 605.99 C 869.94 567.98 872.94 528.31 870.43 489.14 C 866.91 447.60 856.60 406.58 839.47 368.55 C 825.89 337.72 807.35 309.14 785.27 283.73 C 762.85 257.87 735.91 236.21 707.07 217.91 C 671.41 195.54 631.96 179.11 590.81 170.16 C 548.60 161.10 504.86 159.26 462.01 164.42 M 423.00 247.03 C 396.65 257.00 372.71 272.92 352.73 292.72 C 318.75 327.90 296.34 373.32 285.72 420.85 C 280.63 443.17 278.12 466.10 278.45 489.00 C 278.73 502.22 277.11 515.45 274.13 528.32 C 269.84 546.84 262.37 564.38 256.39 582.37 C 251.13 597.31 247.03 612.99 247.60 628.96 C 247.92 639.80 251.12 650.69 257.50 659.53 C 263.33 667.31 273.13 672.23 282.90 671.68 C 285.42 671.70 287.89 669.91 287.93 667.24 C 284.35 663.76 279.83 661.21 277.06 656.94 C 269.35 645.74 268.42 631.18 271.21 618.20 C 272.99 610.44 274.95 602.58 278.93 595.61 C 279.64 603.87 279.25 612.23 280.84 620.41 C 283.99 639.73 291.84 659.05 306.47 672.52 C 316.02 681.47 329.22 686.71 342.36 685.68 C 342.21 683.39 342.13 681.03 341.04 678.96 C 338.53 673.66 336.01 668.30 334.86 662.51 C 339.90 666.67 343.88 671.98 349.21 675.82 C 360.10 683.84 374.03 688.63 387.61 686.35 C 389.79 686.00 393.03 684.90 392.46 682.08 C 389.53 677.59 385.06 674.38 381.91 670.05 C 367.70 651.76 361.66 628.40 360.20 605.63 C 369.64 615.04 379.66 624.01 391.15 630.87 C 409.47 642.51 430.45 649.20 451.63 653.29 C 491.21 660.07 533.61 653.30 567.80 631.79 C 573.26 628.51 578.16 624.42 583.41 620.84 C 579.66 639.45 571.86 657.76 558.56 671.57 C 554.19 676.31 548.18 679.33 544.52 684.77 C 548.83 686.24 553.37 687.05 557.93 687.00 C 571.95 687.06 586.15 684.79 598.97 678.96 C 605.20 676.55 610.62 672.57 616.56 669.60 C 614.59 675.56 609.75 680.24 608.93 686.64 C 625.60 688.92 641.69 679.34 651.58 666.44 C 653.63 667.15 655.73 667.70 657.83 668.29 C 654.76 680.29 651.97 692.56 652.63 705.04 C 652.82 706.93 652.96 709.16 654.56 710.48 C 656.91 712.37 660.10 712.54 662.99 712.71 C 685.32 712.87 707.66 713.31 730.00 712.74 C 742.40 712.74 755.15 712.35 766.86 707.83 C 777.04 703.61 786.31 696.73 792.54 687.56 C 797.09 680.70 800.19 672.37 799.09 664.04 C 798.58 659.73 795.19 655.91 790.86 655.24 C 785.93 654.32 779.51 655.02 776.99 660.00 C 773.94 666.38 774.63 673.93 771.19 680.19 C 766.82 688.20 758.24 693.91 749.06 694.38 C 746.44 685.52 743.08 676.91 740.21 668.14 C 744.62 665.59 749.20 663.31 753.33 660.31 C 760.54 654.75 765.73 646.66 767.91 637.83 C 769.89 629.46 769.85 620.70 768.69 612.21 C 767.93 606.31 765.62 600.80 763.90 595.15 C 762.22 589.71 763.66 584.04 764.48 578.60 C 765.99 569.16 766.49 559.47 765.06 549.99 C 764.32 545.95 763.38 541.64 760.56 538.50 C 758.06 536.01 754.15 537.10 751.33 538.36 C 740.46 543.43 732.40 552.55 723.55 560.33 C 722.47 560.21 721.41 560.11 720.34 560.04 C 719.62 557.66 718.83 555.32 717.96 553.00 C 711.22 535.62 707.86 517.19 704.94 498.85 C 704.69 496.96 704.30 495.06 704.52 493.16 C 707.60 489.27 712.62 486.37 713.17 480.95 C 714.88 466.44 709.95 452.38 707.62 438.25 C 723.07 436.70 739.23 431.78 749.96 419.96 C 751.75 418.33 751.59 415.81 751.74 413.61 C 738.71 411.71 725.89 407.55 714.95 400.09 C 709.81 396.77 705.56 392.33 701.00 388.30 C 696.07 390.88 690.73 392.95 685.08 392.86 C 669.44 393.76 655.16 386.41 640.93 381.04 C 636.42 389.71 633.93 399.35 628.49 407.55 C 623.50 415.43 616.84 423.88 607.00 425.29 C 598.83 426.55 591.42 421.52 586.39 415.56 C 577.69 405.19 571.58 392.91 566.63 380.38 C 560.83 365.83 557.11 350.46 555.40 334.89 C 554.81 328.64 555.23 321.56 559.73 316.72 C 563.85 312.28 570.38 311.69 576.09 312.07 C 587.84 313.17 599.22 316.44 610.57 319.51 C 612.01 319.64 614.22 320.95 615.05 319.06 C 616.97 315.77 618.03 312.07 619.60 308.61 C 623.57 299.38 629.58 291.27 635.02 282.89 C 630.66 276.61 624.25 272.30 618.33 267.64 C 597.55 251.51 572.71 240.91 546.86 236.29 C 528.19 232.37 509.03 232.12 490.04 232.66 C 467.17 234.24 444.41 238.77 423.00 247.03 M 649.77 277.77 C 634.52 290.23 625.14 308.42 619.62 327.03 C 603.09 325.96 587.67 318.00 570.98 318.07 C 567.56 318.23 563.42 319.69 562.49 323.38 C 560.78 329.55 561.43 336.08 562.49 342.31 C 565.58 358.59 570.06 374.72 577.44 389.61 C 582.34 399.68 588.15 409.91 597.46 416.55 C 602.00 420.00 608.88 420.12 613.19 416.22 C 623.19 407.60 628.71 395.19 632.98 382.98 C 634.20 380.04 635.11 376.42 638.15 374.81 C 644.36 374.86 649.72 378.52 655.43 380.50 C 665.56 384.18 676.19 387.61 687.10 386.89 C 691.27 386.48 696.28 385.49 698.35 381.37 C 700.98 376.00 700.70 369.82 700.83 364.00 C 700.90 343.91 697.10 324.06 692.37 304.62 C 689.66 293.99 686.91 283.16 681.44 273.55 C 679.67 270.49 676.91 267.24 673.04 267.37 C 664.30 267.77 656.52 272.57 649.77 277.77 M 429.40 737.53 C 420.66 739.15 418.71 752.44 425.69 757.32 C 430.20 760.36 436.59 759.96 441.10 757.10 C 447.12 753.16 446.58 743.08 440.62 739.36 C 437.34 737.23 433.17 736.84 429.40 737.53 M 209.25 741.20 C 206.72 742.38 206.88 745.60 206.73 747.96 C 206.78 770.30 206.79 792.65 206.76 815.00 C 206.86 821.62 206.13 828.36 207.84 834.85 C 213.58 835.52 219.38 835.60 225.11 834.72 C 226.20 826.86 225.60 818.90 225.71 811.00 C 225.79 798.84 225.33 786.69 225.12 774.55 C 229.06 779.20 232.16 784.46 235.49 789.54 C 244.58 803.45 253.67 817.37 262.65 831.35 C 263.81 832.85 264.86 834.98 267.04 834.99 C 272.16 835.60 277.50 835.84 282.52 834.44 C 284.44 831.33 283.98 827.48 284.11 824.00 C 284.03 798.64 284.17 773.28 283.98 747.92 C 283.74 745.45 283.92 742.05 281.34 740.74 C 277.20 739.42 272.61 739.50 268.41 740.53 C 265.66 741.29 265.31 744.52 265.28 746.91 C 265.24 757.28 265.34 767.66 265.39 778.03 C 265.39 785.51 266.10 793.01 265.49 800.49 C 263.48 798.46 261.60 796.28 260.05 793.88 C 249.82 777.84 239.35 761.96 228.97 746.01 C 227.20 743.56 225.39 740.32 222.00 740.12 C 217.76 739.79 213.27 739.62 209.25 741.20 M 463.56 740.62 C 460.33 741.41 459.03 744.89 459.23 747.91 C 459.24 770.94 459.19 793.97 459.18 817.00 C 459.10 822.78 459.08 828.58 459.61 834.35 C 465.12 835.33 471.01 836.43 476.43 834.48 C 478.01 833.19 477.81 830.91 478.00 829.09 C 478.13 821.01 477.83 812.93 477.95 804.85 C 487.11 804.61 496.62 805.72 505.41 802.43 C 512.38 799.84 519.34 795.57 522.84 788.76 C 526.96 780.46 527.60 770.62 525.25 761.72 C 523.33 754.41 518.36 747.89 511.59 744.46 C 503.70 740.54 494.73 739.46 486.02 739.78 C 478.55 740.10 470.92 738.95 463.56 740.62 M 539.38 740.52 C 537.95 740.80 536.87 742.00 536.70 743.45 C 536.02 747.59 536.45 751.81 536.38 756.00 C 536.35 780.02 536.39 804.05 536.37 828.08 C 536.47 829.99 536.34 832.03 537.18 833.82 C 538.63 835.36 541.01 835.27 542.97 835.50 C 546.60 835.50 550.55 835.64 553.82 833.81 C 555.05 831.81 554.79 829.30 554.95 827.06 C 554.87 803.37 554.85 779.68 554.86 756.00 C 554.82 752.06 555.10 748.10 554.55 744.20 C 554.41 741.80 551.90 740.62 549.86 740.18 C 546.40 739.54 542.78 739.65 539.38 740.52 M 314.33 768.35 C 306.11 772.36 300.52 780.51 298.26 789.22 C 296.16 797.43 296.12 806.25 298.62 814.38 C 301.09 822.52 306.90 829.58 314.42 833.56 C 326.96 839.79 342.88 839.16 354.81 831.78 C 357.64 829.99 361.19 827.01 359.89 823.24 C 358.90 820.02 356.83 816.00 353.04 815.77 C 347.92 816.65 343.81 820.29 338.78 821.49 C 331.94 823.31 323.50 821.88 319.14 815.86 C 316.94 813.20 316.29 809.74 315.60 806.47 C 329.08 806.46 342.56 806.50 356.04 806.51 C 358.18 806.38 361.23 806.57 361.95 803.97 C 363.46 798.03 362.61 791.70 361.15 785.84 C 358.84 776.75 351.85 768.77 342.67 766.28 C 333.40 763.81 323.04 764.05 314.33 768.35 M 391.38 774.75 C 390.65 772.22 390.33 769.45 388.81 767.25 C 387.02 765.55 384.30 765.79 382.02 765.71 C 379.36 765.86 376.48 765.82 374.12 767.22 C 372.31 768.91 372.58 771.67 372.41 773.94 C 372.44 791.98 372.45 810.02 372.47 828.06 C 372.68 830.40 372.27 834.07 375.21 834.83 C 379.86 835.98 384.99 836.24 389.55 834.62 C 391.47 833.94 391.25 831.65 391.49 830.03 C 391.83 819.44 390.65 808.82 391.58 798.24 C 392.11 792.90 394.78 787.25 399.96 785.04 C 404.31 782.93 409.21 784.60 413.79 783.97 C 416.24 779.83 416.55 774.70 416.22 770.02 C 415.71 765.20 409.83 764.88 406.11 765.43 C 399.87 765.69 395.05 770.12 391.38 774.75 M 569.55 772.55 C 568.13 773.53 566.86 775.03 567.26 776.89 C 567.80 781.09 570.05 785.19 573.50 787.71 C 576.85 790.11 579.84 786.09 582.59 784.54 C 587.99 780.26 596.14 778.86 602.01 782.99 C 605.22 785.15 605.81 789.18 606.27 792.72 C 598.10 793.29 589.73 793.26 581.88 795.93 C 577.32 797.50 572.73 799.83 569.85 803.85 C 564.27 811.62 564.43 823.11 570.38 830.64 C 575.78 836.83 584.74 838.87 592.62 837.44 C 598.00 836.62 602.56 833.43 606.61 829.99 C 607.55 831.53 608.37 833.19 609.59 834.56 C 612.64 835.79 616.09 835.83 619.33 835.46 C 621.76 835.12 624.97 833.97 624.76 830.97 C 625.36 821.33 624.81 811.65 625.01 802.00 C 624.95 793.29 625.65 783.81 620.83 776.10 C 616.19 768.78 607.30 765.63 599.04 764.92 C 588.78 764.27 577.90 766.25 569.55 772.55 M 707.61 775.60 C 698.80 786.46 696.81 801.87 700.97 815.03 C 703.11 822.01 707.78 828.16 713.93 832.10 C 725.23 839.11 740.12 839.40 752.17 834.12 C 755.78 832.41 759.81 830.39 761.54 826.56 C 763.11 821.99 759.58 816.50 755.01 815.50 C 750.29 816.35 746.49 819.61 741.95 821.00 C 735.47 823.18 727.40 822.70 722.36 817.65 C 719.30 814.78 718.22 810.60 717.24 806.69 C 730.83 806.08 744.44 806.70 758.05 806.47 C 760.12 806.36 763.10 806.14 763.64 803.63 C 766.30 790.02 761.14 773.32 747.58 767.49 C 734.37 762.41 717.07 764.22 707.61 775.60 M 794.82 774.40 C 793.73 771.71 792.67 769.02 791.54 766.36 C 787.26 765.98 782.77 765.25 778.60 766.66 C 775.72 767.73 775.85 771.42 775.67 773.96 C 775.64 791.64 775.73 809.33 775.72 827.02 C 775.79 829.44 775.69 832.00 776.76 834.27 C 781.15 836.21 786.25 835.74 790.86 834.94 C 792.96 834.69 794.44 832.85 794.41 830.78 C 795.14 819.53 793.99 808.23 794.94 797.00 C 795.43 791.54 798.94 786.03 804.36 784.42 C 808.53 783.58 812.81 784.31 817.02 784.39 C 818.88 779.07 819.87 773.15 818.29 767.65 C 816.11 764.47 811.52 765.25 808.22 765.51 C 802.51 765.99 798.23 770.17 794.82 774.40 M 428.30 766.37 C 425.53 766.68 424.01 769.35 424.24 771.96 C 424.10 790.66 424.18 809.37 424.14 828.08 C 424.35 830.15 423.92 832.80 425.64 834.36 C 429.58 835.76 433.92 835.61 438.02 835.12 C 439.46 834.80 441.39 834.70 442.14 833.19 C 442.98 830.90 442.78 828.41 442.86 826.02 C 442.68 808.66 442.77 791.30 442.76 773.94 C 442.61 771.23 442.65 767.47 439.66 766.28 C 435.97 765.28 432.02 765.69 428.30 766.37 M 631.42 770.98 C 631.66 775.99 634.13 780.52 635.80 785.16 C 640.94 798.38 646.02 811.63 651.24 824.83 C 652.44 828.09 653.89 831.39 654.03 834.93 C 653.66 838.22 651.78 841.18 649.52 843.53 C 646.05 846.85 640.62 846.15 636.84 848.89 C 633.34 852.14 632.98 859.20 637.29 861.89 C 647.05 864.33 658.10 860.16 664.01 852.02 C 670.80 843.23 674.05 832.42 678.20 822.27 C 684.24 806.92 690.24 791.56 696.13 776.16 C 696.91 773.38 698.93 769.26 695.62 767.40 C 691.02 765.12 685.31 765.13 680.45 766.48 C 676.84 769.50 676.43 774.67 674.80 778.84 C 671.18 789.03 668.88 799.67 664.71 809.66 C 660.83 800.37 658.21 790.61 654.88 781.12 C 653.07 776.30 652.21 770.98 649.29 766.67 C 646.26 764.90 642.37 765.44 639.00 765.67 C 635.98 766.16 631.66 767.29 631.42 770.98 Z" />
<path fill="#1e293a" opacity="1.00" d=" M 485.81 376.42 C 486.49 377.99 487.30 379.51 487.83 381.16 C 492.39 399.90 502.14 416.97 513.81 432.17 C 532.28 456.54 557.34 476.00 585.86 487.17 C 590.73 488.96 595.66 490.60 600.56 492.35 C 602.76 515.95 601.69 540.16 594.96 563.00 C 590.55 578.36 582.55 592.83 570.90 603.89 C 552.83 620.79 528.83 630.22 504.59 633.79 C 483.11 637.77 460.71 636.47 439.77 630.30 C 423.30 625.94 407.73 618.21 394.39 607.60 C 383.57 598.62 374.00 587.80 368.07 574.95 C 358.28 554.20 355.41 530.77 356.59 508.03 C 358.71 470.24 370.44 433.76 385.15 399.14 C 387.58 393.78 389.33 388.04 392.87 383.25 C 394.25 394.47 394.56 405.83 397.17 416.87 C 401.50 434.96 408.38 452.64 419.03 467.98 C 426.73 478.75 436.01 488.47 446.79 496.19 C 459.84 505.59 474.90 512.68 490.96 514.71 C 494.73 515.04 498.69 515.51 502.36 514.31 C 504.28 513.95 504.80 511.70 504.49 510.04 C 503.83 507.22 502.08 504.84 500.55 502.43 C 495.01 494.16 491.61 484.69 488.77 475.22 C 478.95 443.29 479.83 408.98 485.81 376.42 Z" />
<path fill="#1e293a" opacity="1.00" d=" M 316.59 414.51 C 314.89 410.91 317.98 405.40 322.22 407.70 C 327.83 412.91 330.60 420.39 335.27 426.38 C 341.85 422.05 346.79 415.59 353.71 411.77 C 355.96 410.60 360.47 409.95 361.09 413.24 C 362.00 415.67 359.72 417.64 358.37 419.38 C 352.75 425.23 345.95 429.79 340.08 435.39 C 343.66 442.49 348.74 448.73 352.06 455.96 C 353.69 458.79 350.15 460.53 348.39 462.09 C 342.36 455.93 338.35 448.21 332.77 441.69 C 328.91 445.53 325.18 449.50 321.72 453.69 C 319.57 456.13 317.55 458.80 314.76 460.55 C 311.68 460.83 309.21 456.98 311.18 454.40 C 315.46 446.59 322.93 441.37 328.86 434.93 C 325.05 427.96 319.50 421.95 316.59 414.51 Z" />
<path fill="#1e293a" opacity="1.00" d=" M 650.36 612.20 C 655.99 609.84 660.19 616.93 658.92 621.82 C 658.58 625.90 653.42 628.14 650.13 625.88 C 645.92 622.76 645.40 614.84 650.36 612.20 Z" />
<path fill="#1e293a" opacity="1.00" d=" M 715.34 617.13 C 720.03 615.43 723.93 620.70 723.68 625.00 C 723.96 629.71 719.20 634.90 714.35 632.87 C 708.48 629.60 709.19 619.71 715.34 617.13 Z" />
<path fill="#1e293a" opacity="1.00" d=" M 478.10 757.36 C 485.88 757.31 494.40 756.42 501.35 760.64 C 509.04 767.12 507.47 781.97 497.88 785.90 C 491.60 788.39 484.69 787.93 478.08 787.63 C 477.76 777.54 477.80 767.44 478.10 757.36 Z" />
<path fill="#1e293a" opacity="1.00" d=" M 320.15 783.16 C 324.63 778.32 332.36 778.35 337.99 780.99 C 342.34 783.18 343.80 788.15 345.00 792.50 C 335.24 792.59 325.47 792.42 315.71 792.63 C 316.74 789.31 317.57 785.68 320.15 783.16 Z" />
<path fill="#1e293a" opacity="1.00" d=" M 721.78 783.77 C 727.14 777.63 737.94 777.56 743.36 783.66 C 745.43 786.01 746.01 789.19 746.90 792.11 C 737.27 792.72 727.63 792.44 718.01 792.12 C 718.97 789.23 719.67 786.09 721.78 783.77 Z" />
<path fill="#1e293a" opacity="1.00" d=" M 587.44 809.50 C 593.42 806.14 600.57 805.95 607.23 806.80 C 606.57 810.76 606.40 815.31 603.29 818.28 C 599.20 822.12 592.72 823.80 587.48 821.51 C 582.92 819.28 583.03 811.84 587.44 809.50 Z" />
</g>
<g id="#ffffffff">
<path fill="#ffffff" opacity="1.00" d=" M 462.01 164.42 C 504.86 159.26 548.60 161.10 590.81 170.16 C 631.96 179.11 671.41 195.54 707.07 217.91 C 735.91 236.21 762.85 257.87 785.27 283.73 C 807.35 309.14 825.89 337.72 839.47 368.55 C 856.60 406.58 866.91 447.60 870.43 489.14 C 872.94 528.31 869.94 567.98 859.92 605.99 C 849.12 648.69 829.70 688.93 804.87 725.20 C 795.01 725.63 785.12 725.62 775.25 725.28 C 782.10 715.48 789.55 706.09 795.88 695.92 C 822.10 653.92 839.47 606.31 845.42 557.10 C 847.82 539.49 847.95 521.68 847.44 503.95 C 845.93 466.26 838.75 428.60 824.38 393.65 C 810.11 357.70 789.78 323.97 763.30 295.69 C 713.36 240.70 644.77 203.12 571.65 190.21 C 526.75 182.39 480.29 182.88 435.75 192.70 C 381.62 204.55 330.80 230.66 289.22 267.23 C 263.51 289.79 241.36 316.38 223.51 345.54 C 193.46 394.86 177.57 452.34 176.28 509.97 C 176.06 555.23 183.70 600.88 201.31 642.71 C 209.80 664.00 220.87 684.22 233.93 703.05 C 238.91 710.63 245.14 717.31 249.83 725.09 C 240.89 725.71 231.91 725.52 222.96 725.45 C 220.11 725.66 218.71 722.73 217.12 720.88 C 194.39 688.29 177.26 651.84 166.32 613.66 C 152.62 566.89 149.35 517.18 156.06 468.94 C 159.77 438.34 168.16 408.39 179.99 379.97 C 199.65 332.78 229.28 289.63 267.06 255.11 C 293.26 231.65 322.31 211.08 354.24 196.16 C 388.17 179.91 424.68 169.10 462.01 164.42 Z" />
<path fill="#ffffff" opacity="1.00" d=" M 423.00 247.03 C 444.41 238.77 467.17 234.24 490.04 232.66 C 509.03 232.12 528.19 232.37 546.86 236.29 C 572.71 240.91 597.55 251.51 618.33 267.64 C 624.25 272.30 630.66 276.61 635.02 282.89 C 629.58 291.27 623.57 299.38 619.60 308.61 C 618.03 312.07 616.97 315.77 615.05 319.06 C 614.22 320.95 612.01 319.64 610.57 319.51 C 599.22 316.44 587.84 313.17 576.09 312.07 C 570.38 311.69 563.85 312.28 559.73 316.72 C 555.23 321.56 554.81 328.64 555.40 334.89 C 557.11 350.46 560.83 365.83 566.63 380.38 C 571.58 392.91 577.69 405.19 586.39 415.56 C 591.42 421.52 598.83 426.55 607.00 425.29 C 616.84 423.88 623.50 415.43 628.49 407.55 C 633.93 399.35 636.42 389.71 640.93 381.04 C 655.16 386.41 669.44 393.76 685.08 392.86 C 690.73 392.95 696.07 390.88 701.00 388.30 C 705.56 392.33 709.81 396.77 714.95 400.09 C 725.89 407.55 738.71 411.71 751.74 413.61 C 751.59 415.81 751.75 418.33 749.96 419.96 C 739.23 431.78 723.07 436.70 707.62 438.25 C 709.95 452.38 714.88 466.44 713.17 480.95 C 712.62 486.37 707.60 489.27 704.52 493.16 C 704.30 495.06 704.69 496.96 704.94 498.85 C 707.86 517.19 711.22 535.62 717.96 553.00 C 718.83 555.32 719.62 557.66 720.34 560.04 C 709.25 559.52 698.16 558.22 687.04 558.86 C 683.23 558.99 678.72 559.27 676.00 556.04 C 668.27 547.80 662.12 537.80 652.54 531.46 C 649.74 529.68 645.53 527.84 642.81 530.76 C 638.45 535.15 636.58 541.34 635.24 547.23 C 633.63 555.65 632.55 564.28 633.41 572.86 C 633.67 576.67 634.36 580.84 632.29 584.31 C 629.69 588.97 626.33 593.18 624.09 598.04 C 619.32 608.10 616.67 619.68 619.28 630.71 C 622.71 647.24 635.81 660.92 651.58 666.44 C 641.69 679.34 625.60 688.92 608.93 686.64 C 609.75 680.24 614.59 675.56 616.56 669.60 C 610.62 672.57 605.20 676.55 598.97 678.96 C 586.15 684.79 571.95 687.06 557.93 687.00 C 553.37 687.05 548.83 686.24 544.52 684.77 C 548.18 679.33 554.19 676.31 558.56 671.57 C 571.86 657.76 579.66 639.45 583.41 620.84 C 578.16 624.42 573.26 628.51 567.80 631.79 C 533.61 653.30 491.21 660.07 451.63 653.29 C 430.45 649.20 409.47 642.51 391.15 630.87 C 379.66 624.01 369.64 615.04 360.20 605.63 C 361.66 628.40 367.70 651.76 381.91 670.05 C 385.06 674.38 389.53 677.59 392.46 682.08 C 393.03 684.90 389.79 686.00 387.61 686.35 C 374.03 688.63 360.10 683.84 349.21 675.82 C 343.88 671.98 339.90 666.67 334.86 662.51 C 336.01 668.30 338.53 673.66 341.04 678.96 C 342.13 681.03 342.21 683.39 342.36 685.68 C 329.22 686.71 316.02 681.47 306.47 672.52 C 291.84 659.05 283.99 639.73 280.84 620.41 C 279.25 612.23 279.64 603.87 278.93 595.61 C 274.95 602.58 272.99 610.44 271.21 618.20 C 268.42 631.18 269.35 645.74 277.06 656.94 C 279.83 661.21 284.35 663.76 287.93 667.24 C 287.89 669.91 285.42 671.70 282.90 671.68 C 273.13 672.23 263.33 667.31 257.50 659.53 C 251.12 650.69 247.92 639.80 247.60 628.96 C 247.03 612.99 251.13 597.31 256.39 582.37 C 262.37 564.38 269.84 546.84 274.13 528.32 C 277.11 515.45 278.73 502.22 278.45 489.00 C 278.12 466.10 280.63 443.17 285.72 420.85 C 296.34 373.32 318.75 327.90 352.73 292.72 C 372.71 272.92 396.65 257.00 423.00 247.03 M 485.81 376.42 C 479.83 408.98 478.95 443.29 488.77 475.22 C 491.61 484.69 495.01 494.16 500.55 502.43 C 502.08 504.84 503.83 507.22 504.49 510.04 C 504.80 511.70 504.28 513.95 502.36 514.31 C 498.69 515.51 494.73 515.04 490.96 514.71 C 474.90 512.68 459.84 505.59 446.79 496.19 C 436.01 488.47 426.73 478.75 419.03 467.98 C 408.38 452.64 401.50 434.96 397.17 416.87 C 394.56 405.83 394.25 394.47 392.87 383.25 C 389.33 388.04 387.58 393.78 385.15 399.14 C 370.44 433.76 358.71 470.24 356.59 508.03 C 355.41 530.77 358.28 554.20 368.07 574.95 C 374.00 587.80 383.57 598.62 394.39 607.60 C 407.73 618.21 423.30 625.94 439.77 630.30 C 460.71 636.47 483.11 637.77 504.59 633.79 C 528.83 630.22 552.83 620.79 570.90 603.89 C 582.55 592.83 590.55 578.36 594.96 563.00 C 601.69 540.16 602.76 515.95 600.56 492.35 C 595.66 490.60 590.73 488.96 585.86 487.17 C 557.34 476.00 532.28 456.54 513.81 432.17 C 502.14 416.97 492.39 399.90 487.83 381.16 C 487.30 379.51 486.49 377.99 485.81 376.42 M 316.59 414.51 C 319.50 421.95 325.05 427.96 328.86 434.93 C 322.93 441.37 315.46 446.59 311.18 454.40 C 309.21 456.98 311.68 460.83 314.76 460.55 C 317.55 458.80 319.57 456.13 321.72 453.69 C 325.18 449.50 328.91 445.53 332.77 441.69 C 338.35 448.21 342.36 455.93 348.39 462.09 C 350.15 460.53 353.69 458.79 352.06 455.96 C 348.74 448.73 343.66 442.49 340.08 435.39 C 345.95 429.79 352.75 425.23 358.37 419.38 C 359.72 417.64 362.00 415.67 361.09 413.24 C 360.47 409.95 355.96 410.60 353.71 411.77 C 346.79 415.59 341.85 422.05 335.27 426.38 C 330.60 420.39 327.83 412.91 322.22 407.70 C 317.98 405.40 314.89 410.91 316.59 414.51 Z" />
<path fill="#ffffff" opacity="1.00" d=" M 649.77 277.77 C 656.52 272.57 664.30 267.77 673.04 267.37 C 676.91 267.24 679.67 270.49 681.44 273.55 C 686.91 283.16 689.66 293.99 692.37 304.62 C 697.10 324.06 700.90 343.91 700.83 364.00 C 700.70 369.82 700.98 376.00 698.35 381.37 C 696.28 385.49 691.27 386.48 687.10 386.89 C 676.19 387.61 665.56 384.18 655.43 380.50 C 649.72 378.52 644.36 374.86 638.15 374.81 C 635.11 376.42 634.20 380.04 632.98 382.98 C 628.71 395.19 623.19 407.60 613.19 416.22 C 608.88 420.12 602.00 420.00 597.46 416.55 C 588.15 409.91 582.34 399.68 577.44 389.61 C 570.06 374.72 565.58 358.59 562.49 342.31 C 561.43 336.08 560.78 329.55 562.49 323.38 C 563.42 319.69 567.56 318.23 570.98 318.07 C 587.67 318.00 603.09 325.96 619.62 327.03 C 625.14 308.42 634.52 290.23 649.77 277.77 Z" />
<path fill="#ffffff" opacity="1.00" d=" M 429.40 737.53 C 433.17 736.84 437.34 737.23 440.62 739.36 C 446.58 743.08 447.12 753.16 441.10 757.10 C 436.59 759.96 430.20 760.36 425.69 757.32 C 418.71 752.44 420.66 739.15 429.40 737.53 Z" />
<path fill="#ffffff" opacity="1.00" d=" M 209.25 741.20 C 213.27 739.62 217.76 739.79 222.00 740.12 C 225.39 740.32 227.20 743.56 228.97 746.01 C 239.35 761.96 249.82 777.84 260.05 793.88 C 261.60 796.28 263.48 798.46 265.49 800.49 C 266.10 793.01 265.39 785.51 265.39 778.03 C 265.34 767.66 265.24 757.28 265.28 746.91 C 265.31 744.52 265.66 741.29 268.41 740.53 C 272.61 739.50 277.20 739.42 281.34 740.74 C 283.92 742.05 283.74 745.45 283.98 747.92 C 284.17 773.28 284.03 798.64 284.11 824.00 C 283.98 827.48 284.44 831.33 282.52 834.44 C 277.50 835.84 272.16 835.60 267.04 834.99 C 264.86 834.98 263.81 832.85 262.65 831.35 C 253.67 817.37 244.58 803.45 235.49 789.54 C 232.16 784.46 229.06 779.20 225.12 774.55 C 225.33 786.69 225.79 798.84 225.71 811.00 C 225.60 818.90 226.20 826.86 225.11 834.72 C 219.38 835.60 213.58 835.52 207.84 834.85 C 206.13 828.36 206.86 821.62 206.76 815.00 C 206.79 792.65 206.78 770.30 206.73 747.96 C 206.88 745.60 206.72 742.38 209.25 741.20 Z" />
<path fill="#ffffff" opacity="1.00" d=" M 463.56 740.62 C 470.92 738.95 478.55 740.10 486.02 739.78 C 494.73 739.46 503.70 740.54 511.59 744.46 C 518.36 747.89 523.33 754.41 525.25 761.72 C 527.60 770.62 526.96 780.46 522.84 788.76 C 519.34 795.57 512.38 799.84 505.41 802.43 C 496.62 805.72 487.11 804.61 477.95 804.85 C 477.83 812.93 478.13 821.01 478.00 829.09 C 477.81 830.91 478.01 833.19 476.43 834.48 C 471.01 836.43 465.12 835.33 459.61 834.35 C 459.08 828.58 459.10 822.78 459.18 817.00 C 459.19 793.97 459.24 770.94 459.23 747.91 C 459.03 744.89 460.33 741.41 463.56 740.62 M 478.10 757.36 C 477.80 767.44 477.76 777.54 478.08 787.63 C 484.69 787.93 491.60 788.39 497.88 785.90 C 507.47 781.97 509.04 767.12 501.35 760.64 C 494.40 756.42 485.88 757.31 478.10 757.36 Z" />
<path fill="#ffffff" opacity="1.00" d=" M 539.38 740.52 C 542.78 739.65 546.40 739.54 549.86 740.18 C 551.90 740.62 554.41 741.80 554.55 744.20 C 555.10 748.10 554.82 752.06 554.86 756.00 C 554.85 779.68 554.87 803.37 554.95 827.06 C 554.79 829.30 555.05 831.81 553.82 833.81 C 550.55 835.64 546.60 835.50 542.97 835.50 C 541.01 835.27 538.63 835.36 537.18 833.82 C 536.34 832.03 536.47 829.99 536.37 828.08 C 536.39 804.05 536.35 780.02 536.38 756.00 C 536.45 751.81 536.02 747.59 536.70 743.45 C 536.87 742.00 537.95 740.80 539.38 740.52 Z" />
<path fill="#ffffff" opacity="1.00" d=" M 314.33 768.35 C 323.04 764.05 333.40 763.81 342.67 766.28 C 351.85 768.77 358.84 776.75 361.15 785.84 C 362.61 791.70 363.46 798.03 361.95 803.97 C 361.23 806.57 358.18 806.38 356.04 806.51 C 342.56 806.50 329.08 806.46 315.60 806.47 C 316.29 809.74 316.94 813.20 319.14 815.86 C 323.50 821.88 331.94 823.31 338.78 821.49 C 343.81 820.29 347.92 816.65 353.04 815.77 C 356.83 816.00 358.90 820.02 359.89 823.24 C 361.19 827.01 357.64 829.99 354.81 831.78 C 342.88 839.16 326.96 839.79 314.42 833.56 C 306.90 829.58 301.09 822.52 298.62 814.38 C 296.12 806.25 296.16 797.43 298.26 789.22 C 300.52 780.51 306.11 772.36 314.33 768.35 M 320.15 783.16 C 317.57 785.68 316.74 789.31 315.71 792.63 C 325.47 792.42 335.24 792.59 345.00 792.50 C 343.80 788.15 342.34 783.18 337.99 780.99 C 332.36 778.35 324.63 778.32 320.15 783.16 Z" />
<path fill="#ffffff" opacity="1.00" d=" M 391.38 774.75 C 395.05 770.12 399.87 765.69 406.11 765.43 C 409.83 764.88 415.71 765.20 416.22 770.02 C 416.55 774.70 416.24 779.83 413.79 783.97 C 409.21 784.60 404.31 782.93 399.96 785.04 C 394.78 787.25 392.11 792.90 391.58 798.24 C 390.65 808.82 391.83 819.44 391.49 830.03 C 391.25 831.65 391.47 833.94 389.55 834.62 C 384.99 836.24 379.86 835.98 375.21 834.83 C 372.27 834.07 372.68 830.40 372.47 828.06 C 372.45 810.02 372.44 791.98 372.41 773.94 C 372.58 771.67 372.31 768.91 374.12 767.22 C 376.48 765.82 379.36 765.86 382.02 765.71 C 384.30 765.79 387.02 765.55 388.81 767.25 C 390.33 769.45 390.65 772.22 391.38 774.75 Z" />
<path fill="#ffffff" opacity="1.00" d=" M 569.55 772.55 C 577.90 766.25 588.78 764.27 599.04 764.92 C 607.30 765.63 616.19 768.78 620.83 776.10 C 625.65 783.81 624.95 793.29 625.01 802.00 C 624.81 811.65 625.36 821.33 624.76 830.97 C 624.97 833.97 621.76 835.12 619.33 835.46 C 616.09 835.83 612.64 835.79 609.59 834.56 C 608.37 833.19 607.55 831.53 606.61 829.99 C 602.56 833.43 598.00 836.62 592.62 837.44 C 584.74 838.87 575.78 836.83 570.38 830.64 C 564.43 823.11 564.27 811.62 569.85 803.85 C 572.73 799.83 577.32 797.50 581.88 795.93 C 589.73 793.26 598.10 793.29 606.27 792.72 C 605.81 789.18 605.22 785.15 602.01 782.99 C 596.14 778.86 587.99 780.26 582.59 784.54 C 579.84 786.09 576.85 790.11 573.50 787.71 C 570.05 785.19 567.80 781.09 567.26 776.89 C 566.86 775.03 568.13 773.53 569.55 772.55 M 587.44 809.50 C 583.03 811.84 582.92 819.28 587.48 821.51 C 592.72 823.80 599.20 822.12 603.29 818.28 C 606.40 815.31 606.57 810.76 607.23 806.80 C 600.57 805.95 593.42 806.14 587.44 809.50 Z" />
<path fill="#ffffff" opacity="1.00" d=" M 707.61 775.60 C 717.07 764.22 734.37 762.41 747.58 767.49 C 761.14 773.32 766.30 790.02 763.64 803.63 C 763.10 806.14 760.12 806.36 758.05 806.47 C 744.44 806.70 730.83 806.08 717.24 806.69 C 718.22 810.60 719.30 814.78 722.36 817.65 C 727.40 822.70 735.47 823.18 741.95 821.00 C 746.49 819.61 750.29 816.35 755.01 815.50 C 759.58 816.50 763.11 821.99 761.54 826.56 C 759.81 830.39 755.78 832.41 752.17 834.12 C 740.12 839.40 725.23 839.11 713.93 832.10 C 707.78 828.16 703.11 822.01 700.97 815.03 C 696.81 801.87 698.80 786.46 707.61 775.60 M 721.78 783.77 C 719.67 786.09 718.97 789.23 718.01 792.12 C 727.63 792.44 737.27 792.72 746.90 792.11 C 746.01 789.19 745.43 786.01 743.36 783.66 C 737.94 777.56 727.14 777.63 721.78 783.77 Z" />
<path fill="#ffffff" opacity="1.00" d=" M 794.82 774.40 C 798.23 770.17 802.51 765.99 808.22 765.51 C 811.52 765.25 816.11 764.47 818.29 767.65 C 819.87 773.15 818.88 779.07 817.02 784.39 C 812.81 784.31 808.53 783.58 804.36 784.42 C 798.94 786.03 795.43 791.54 794.94 797.00 C 793.99 808.23 795.14 819.53 794.41 830.78 C 794.44 832.85 792.96 834.69 790.86 834.94 C 786.25 835.74 781.15 836.21 776.76 834.27 C 775.69 832.00 775.79 829.44 775.72 827.02 C 775.73 809.33 775.64 791.64 775.67 773.96 C 775.85 771.42 775.72 767.73 778.60 766.66 C 782.77 765.25 787.26 765.98 791.54 766.36 C 792.67 769.02 793.73 771.71 794.82 774.40 Z" />
<path fill="#ffffff" opacity="1.00" d=" M 428.30 766.37 C 432.02 765.69 435.97 765.28 439.66 766.28 C 442.65 767.47 442.61 771.23 442.76 773.94 C 442.77 791.30 442.68 808.66 442.86 826.02 C 442.78 828.41 442.98 830.90 442.14 833.19 C 441.39 834.70 439.46 834.80 438.02 835.12 C 433.92 835.61 429.58 835.76 425.64 834.36 C 423.92 832.80 424.35 830.15 424.14 828.08 C 424.18 809.37 424.10 790.66 424.24 771.96 C 424.01 769.35 425.53 766.68 428.30 766.37 Z" />
<path fill="#ffffff" opacity="1.00" d=" M 631.42 770.98 C 631.66 767.29 635.98 766.16 639.00 765.67 C 642.37 765.44 646.26 764.90 649.29 766.67 C 652.21 770.98 653.07 776.30 654.88 781.12 C 658.21 790.61 660.83 800.37 664.71 809.66 C 668.88 799.67 671.18 789.03 674.80 778.84 C 676.43 774.67 676.84 769.50 680.45 766.48 C 685.31 765.13 691.02 765.12 695.62 767.40 C 698.93 769.26 696.91 773.38 696.13 776.16 C 690.24 791.56 684.24 806.92 678.20 822.27 C 674.05 832.42 670.80 843.23 664.01 852.02 C 658.10 860.16 647.05 864.33 637.29 861.89 C 632.98 859.20 633.34 852.14 636.84 848.89 C 640.62 846.15 646.05 846.85 649.52 843.53 C 651.78 841.18 653.66 838.22 654.03 834.93 C 653.89 831.39 652.44 828.09 651.24 824.83 C 646.02 811.63 640.94 798.38 635.80 785.16 C 634.13 780.52 631.66 775.99 631.42 770.98 Z" />
</g>
<g id="#929292ff">
<path fill="#929292" opacity="1.00" d=" M 642.81 530.76 C 645.53 527.84 649.74 529.68 652.54 531.46 C 662.12 537.80 668.27 547.80 676.00 556.04 C 678.72 559.27 683.23 558.99 687.04 558.86 C 698.16 558.22 709.25 559.52 720.34 560.04 C 721.41 560.11 722.47 560.21 723.55 560.33 C 732.40 552.55 740.46 543.43 751.33 538.36 C 754.15 537.10 758.06 536.01 760.56 538.50 C 763.38 541.64 764.32 545.95 765.06 549.99 C 766.49 559.47 765.99 569.16 764.48 578.60 C 763.66 584.04 762.22 589.71 763.90 595.15 C 765.62 600.80 767.93 606.31 768.69 612.21 C 769.85 620.70 769.89 629.46 767.91 637.83 C 765.73 646.66 760.54 654.75 753.33 660.31 C 749.20 663.31 744.62 665.59 740.21 668.14 C 743.08 676.91 746.44 685.52 749.06 694.38 C 758.24 693.91 766.82 688.20 771.19 680.19 C 774.63 673.93 773.94 666.38 776.99 660.00 C 779.51 655.02 785.93 654.32 790.86 655.24 C 795.19 655.91 798.58 659.73 799.09 664.04 C 800.19 672.37 797.09 680.70 792.54 687.56 C 786.31 696.73 777.04 703.61 766.86 707.83 C 755.15 712.35 742.40 712.74 730.00 712.74 C 707.66 713.31 685.32 712.87 662.99 712.71 C 660.10 712.54 656.91 712.37 654.56 710.48 C 652.96 709.16 652.82 706.93 652.63 705.04 C 651.97 692.56 654.76 680.29 657.83 668.29 C 655.73 667.70 653.63 667.15 651.58 666.44 C 635.81 660.92 622.71 647.24 619.28 630.71 C 616.67 619.68 619.32 608.10 624.09 598.04 C 626.33 593.18 629.69 588.97 632.29 584.31 C 634.36 580.84 633.67 576.67 633.41 572.86 C 632.55 564.28 633.63 555.65 635.24 547.23 C 636.58 541.34 638.45 535.15 642.81 530.76 M 650.36 612.20 C 645.40 614.84 645.92 622.76 650.13 625.88 C 653.42 628.14 658.58 625.90 658.92 621.82 C 660.19 616.93 655.99 609.84 650.36 612.20 M 715.34 617.13 C 709.19 619.71 708.48 629.60 714.35 632.87 C 719.20 634.90 723.96 629.71 723.68 625.00 C 723.93 620.70 720.03 615.43 715.34 617.13 Z" />
</g>
</svg>
