<?xml version="1.0" encoding="UTF-8" ?>
<!DOCTYPE svg PUBLIC "-//W3C//DTD SVG 1.1//EN" "http://www.w3.org/Graphics/SVG/1.1/DTD/svg11.dtd">
<svg width="1024pt" height="1024pt" viewBox="0 0 1024 1024" version="1.1" xmlns="http://www.w3.org/2000/svg">
<g id="#1e293aff">
<path fill="#1e293a" opacity="1.00" d=" M 0.00 0.00 L 1024.00 0.00 L 1024.00 1024.00 L 0.00 1024.00 L 0.00 0.00 M 356.28 195.21 C 324.43 209.81 295.40 230.05 269.20 253.20 C 254.17 266.51 240.70 281.49 228.16 297.13 C 188.56 348.46 162.27 410.43 155.29 475.03 C 149.58 521.61 153.25 569.40 166.54 614.43 C 177.50 652.33 194.54 688.51 217.13 720.88 C 218.71 722.74 220.11 725.67 222.96 725.44 C 231.90 725.51 240.87 725.72 249.80 725.09 C 245.42 717.69 239.52 711.36 234.74 704.23 C 212.51 672.55 196.39 636.66 186.80 599.19 C 176.10 555.84 173.06 510.32 180.14 466.14 C 184.61 436.57 192.89 407.54 205.28 380.31 C 219.83 347.64 240.18 317.69 264.42 291.44 C 306.75 245.45 362.35 211.75 422.81 195.81 C 467.49 184.04 514.53 181.93 560.23 188.40 C 614.63 196.03 666.97 217.42 711.54 249.47 C 741.74 271.52 768.69 298.23 790.06 328.96 C 803.29 348.32 814.47 369.08 823.23 390.83 C 838.20 426.30 845.79 464.63 847.41 503.02 C 847.96 521.06 847.87 539.18 845.42 557.09 C 839.37 607.01 821.61 655.32 794.71 697.75 C 788.68 707.25 781.65 716.03 775.28 725.28 C 785.13 725.61 795.00 725.66 804.85 725.18 C 825.05 695.78 841.57 663.74 852.91 629.89 C 863.26 598.62 869.48 565.97 870.86 533.04 C 871.78 511.39 871.30 489.60 868.04 468.15 C 862.13 425.15 848.44 383.26 827.94 345.02 C 811.47 314.85 790.48 287.13 765.79 263.22 C 725.92 225.89 678.12 196.80 626.14 179.85 C 583.41 165.51 537.97 160.28 493.03 161.87 C 445.82 163.67 398.99 174.97 356.28 195.21 M 414.45 250.50 C 388.06 262.12 364.13 279.42 345.03 301.03 C 314.85 335.60 294.85 378.40 285.20 423.12 C 280.48 444.73 278.12 466.87 278.45 489.00 C 278.75 503.28 276.90 517.57 273.38 531.39 C 268.97 549.06 261.82 565.86 256.14 583.12 C 250.98 597.82 247.05 613.26 247.60 628.96 C 247.91 639.79 251.12 650.70 257.50 659.53 C 263.33 667.31 273.13 672.23 282.90 671.69 C 285.42 671.70 287.89 669.91 287.92 667.24 C 284.36 663.75 279.82 661.22 277.07 656.94 C 269.35 645.74 268.42 631.18 271.21 618.20 C 273.00 610.45 274.93 602.58 278.93 595.63 C 279.64 602.98 279.19 610.43 280.44 617.75 C 283.27 638.01 291.18 658.41 306.47 672.52 C 315.99 681.45 329.15 686.71 342.27 685.68 C 342.32 683.37 342.13 681.02 341.04 678.95 C 338.53 673.66 336.00 668.31 334.87 662.52 C 339.92 666.66 343.87 671.99 349.21 675.81 C 360.10 683.85 374.03 688.62 387.61 686.35 C 389.78 686.00 393.07 684.89 392.44 682.08 C 389.53 677.58 385.05 674.38 381.91 670.05 C 367.72 651.77 361.66 628.41 360.21 605.65 C 369.17 614.50 378.52 623.08 389.30 629.71 C 403.64 639.04 419.67 645.53 436.20 649.81 C 475.36 660.44 518.53 657.08 554.97 638.97 C 565.18 634.14 574.32 627.50 583.40 620.86 C 579.67 639.46 571.85 657.76 558.56 671.57 C 554.22 676.33 548.13 679.28 544.57 684.77 C 548.86 686.26 553.38 687.05 557.93 687.00 C 571.95 687.06 586.16 684.81 598.98 678.96 C 605.21 676.56 610.60 672.57 616.54 669.60 C 614.66 675.60 609.64 680.20 608.99 686.63 C 625.52 688.83 641.86 679.48 651.41 666.36 C 653.50 667.11 655.66 667.63 657.80 668.25 C 654.70 680.58 651.79 693.21 652.72 706.02 C 652.84 708.11 653.69 710.39 655.76 711.29 C 660.21 713.30 665.25 712.60 670.00 712.75 C 690.00 712.97 710.00 713.24 730.00 712.74 C 742.40 712.73 755.15 712.39 766.86 707.82 C 777.04 703.62 786.30 696.72 792.54 687.57 C 797.09 680.70 800.19 672.37 799.10 664.03 C 798.58 659.74 795.20 655.91 790.87 655.24 C 785.94 654.32 779.51 655.02 776.99 660.00 C 773.94 666.38 774.64 673.93 771.20 680.19 C 766.82 688.14 758.28 693.94 749.11 694.35 C 746.46 685.50 743.03 676.93 740.24 668.14 C 743.17 666.45 746.14 664.80 749.07 663.10 C 759.48 657.26 766.62 646.35 768.59 634.66 C 769.87 626.69 769.76 618.50 768.42 610.55 C 767.55 605.24 765.43 600.28 763.90 595.16 C 762.48 590.57 763.30 585.74 764.07 581.13 C 765.95 570.30 766.75 559.10 764.74 548.24 C 763.91 544.60 762.91 540.61 760.03 538.03 C 757.19 536.02 753.49 537.34 750.66 538.67 C 741.22 543.40 733.61 550.90 726.13 558.20 C 724.67 559.88 722.46 560.30 720.34 560.08 C 719.76 558.14 719.15 556.21 718.46 554.31 C 710.80 534.71 707.02 513.84 704.23 493.05 C 707.88 489.64 712.45 486.26 713.16 480.95 C 714.89 466.45 709.95 452.40 707.61 438.27 C 723.06 436.70 739.22 431.78 749.96 419.96 C 751.80 418.33 751.64 415.81 751.66 413.58 C 738.42 411.64 725.39 407.38 714.35 399.68 C 709.44 396.45 705.42 392.13 700.99 388.33 C 696.04 390.85 690.73 392.97 685.09 392.86 C 669.45 393.78 655.18 386.39 640.95 381.07 C 636.38 389.71 633.95 399.36 628.49 407.55 C 623.50 415.43 616.84 423.88 606.99 425.29 C 599.09 426.51 591.83 421.82 586.87 416.09 C 578.23 406.04 572.16 394.06 567.21 381.85 C 561.09 366.85 557.16 350.98 555.40 334.89 C 554.81 328.64 555.23 321.56 559.73 316.72 C 563.84 312.29 570.37 311.69 576.06 312.08 C 587.81 313.20 599.22 316.42 610.57 319.51 C 612.01 319.64 614.23 320.95 615.05 319.06 C 617.08 315.55 618.18 311.60 619.90 307.94 C 623.85 298.98 629.73 291.10 635.00 282.90 C 633.15 280.49 631.28 278.05 628.95 276.09 C 615.20 264.60 600.35 254.11 583.65 247.35 C 567.91 240.27 550.91 236.57 533.90 234.15 C 520.03 232.20 505.99 232.44 492.03 232.57 C 465.41 234.08 438.93 239.87 414.45 250.50 M 665.66 268.73 C 653.36 273.11 643.27 282.28 635.81 292.81 C 628.29 303.08 623.33 314.88 619.62 326.99 C 603.08 326.01 587.67 317.96 570.98 318.07 C 567.56 318.23 563.42 319.69 562.49 323.38 C 560.78 329.55 561.43 336.08 562.49 342.32 C 565.62 358.83 570.22 375.20 577.76 390.28 C 582.70 400.32 588.61 410.53 598.06 416.94 C 602.55 420.06 609.08 419.92 613.19 416.22 C 623.18 407.59 628.71 395.19 632.98 382.99 C 634.20 380.04 635.11 376.42 638.14 374.81 C 642.30 374.69 646.10 376.67 649.86 378.19 C 657.10 381.41 664.66 383.90 672.40 385.64 C 679.51 387.09 687.27 388.03 694.18 385.23 C 699.32 383.06 700.17 376.80 700.60 371.90 C 702.00 344.80 696.18 317.96 688.97 292.00 C 686.49 284.39 684.06 276.40 678.93 270.11 C 675.62 266.09 669.94 267.34 665.66 268.73 M 429.40 737.53 C 420.66 739.15 418.72 752.44 425.69 757.32 C 430.21 760.36 436.60 759.96 441.10 757.10 C 446.90 753.30 446.63 743.77 441.21 739.77 C 437.87 737.28 433.40 736.80 429.40 737.53 M 209.25 741.20 C 206.72 742.37 206.88 745.59 206.73 747.95 C 206.78 770.96 206.79 793.98 206.75 817.00 C 206.81 822.95 206.18 829.03 207.89 834.84 C 213.60 835.54 219.37 835.62 225.06 834.72 C 226.26 827.20 225.57 819.57 225.72 812.00 C 225.82 799.52 225.25 787.05 225.14 774.57 C 227.00 776.82 228.76 779.16 230.37 781.61 C 240.95 798.01 251.74 814.29 262.25 830.74 C 263.18 832.11 264.11 833.53 265.41 834.60 C 271.12 836.01 277.08 835.41 282.83 834.65 C 283.56 831.83 284.15 828.95 284.11 826.03 C 284.06 800.33 284.13 774.63 284.02 748.93 C 283.75 746.16 284.19 742.31 281.35 740.75 C 277.20 739.42 272.61 739.51 268.41 740.53 C 265.66 741.29 265.30 744.52 265.28 746.92 C 265.24 757.29 265.34 767.66 265.39 778.03 C 265.38 785.51 266.11 792.99 265.49 800.46 C 263.64 798.62 261.89 796.67 260.45 794.48 C 250.07 778.25 239.49 762.15 228.97 746.02 C 227.20 743.56 225.39 740.32 222.00 740.12 C 217.76 739.79 213.28 739.63 209.25 741.20 M 463.56 740.62 C 460.33 741.41 459.02 744.89 459.23 747.92 C 459.24 771.61 459.20 795.30 459.17 819.00 C 459.06 824.10 459.14 829.22 459.63 834.32 C 464.89 835.38 470.42 836.23 475.69 834.78 C 477.73 834.26 477.77 831.75 477.95 830.07 C 478.23 821.67 477.76 813.27 477.97 804.87 C 487.13 804.58 496.63 805.73 505.41 802.43 C 512.38 799.84 519.34 795.57 522.84 788.76 C 526.96 780.46 527.60 770.63 525.25 761.73 C 523.34 754.41 518.36 747.90 511.59 744.46 C 503.71 740.55 494.74 739.45 486.03 739.78 C 478.55 740.10 470.93 738.95 463.56 740.62 M 539.38 740.52 C 536.45 741.11 536.42 744.57 536.36 746.93 C 536.39 774.31 536.35 801.69 536.40 829.08 C 536.51 831.23 536.32 834.56 539.17 834.97 C 543.97 835.84 549.36 835.99 553.83 833.81 C 555.04 831.80 554.79 829.31 554.95 827.06 C 554.87 803.37 554.85 779.69 554.86 756.00 C 554.82 752.06 555.10 748.10 554.55 744.20 C 554.41 741.81 551.90 740.62 549.86 740.18 C 546.40 739.54 542.78 739.65 539.38 740.52 M 313.67 768.69 C 305.80 772.80 300.47 780.75 298.26 789.22 C 296.16 797.43 296.12 806.25 298.62 814.38 C 301.09 822.52 306.90 829.58 314.42 833.56 C 326.96 839.79 342.88 839.16 354.81 831.78 C 357.64 829.99 361.19 827.01 359.89 823.24 C 358.90 820.01 356.83 815.99 353.04 815.77 C 347.92 816.65 343.81 820.29 338.78 821.49 C 331.94 823.31 323.50 821.88 319.14 815.86 C 316.98 813.18 316.17 809.79 315.66 806.47 C 329.12 806.45 342.58 806.50 356.04 806.51 C 358.19 806.38 361.23 806.56 361.96 803.97 C 363.49 797.77 362.58 791.16 360.93 785.07 C 358.42 776.03 351.15 768.30 341.92 766.07 C 332.61 763.81 322.27 764.16 313.67 768.69 M 391.38 774.74 C 390.38 771.93 390.49 768.01 387.59 766.40 C 383.66 765.22 379.36 765.60 375.43 766.58 C 372.63 767.29 372.55 770.65 372.43 772.98 C 372.38 791.01 372.50 809.04 372.44 827.07 C 372.54 829.24 372.40 831.57 373.38 833.60 C 374.30 834.93 376.10 835.04 377.56 835.37 C 381.52 835.85 385.76 836.09 389.55 834.61 C 391.50 833.96 391.24 831.65 391.49 830.03 C 391.83 819.43 390.66 808.82 391.58 798.24 C 392.11 792.90 394.78 787.25 399.96 785.04 C 404.30 782.91 409.21 784.63 413.79 783.95 C 416.26 779.83 416.54 774.70 416.22 770.02 C 415.71 765.20 409.83 764.88 406.12 765.43 C 399.87 765.69 395.07 770.12 391.38 774.74 M 569.00 773.00 C 567.74 773.87 566.96 775.32 567.26 776.89 C 567.80 781.09 570.05 785.19 573.49 787.71 C 576.85 790.11 579.84 786.09 582.59 784.53 C 587.99 780.26 596.13 778.87 602.01 782.98 C 605.20 785.16 605.86 789.15 606.23 792.72 C 598.07 793.30 589.71 793.25 581.89 795.92 C 577.32 797.50 572.73 799.83 569.85 803.85 C 564.23 811.61 564.44 823.12 570.38 830.64 C 575.78 836.83 584.74 838.87 592.61 837.44 C 598.05 836.64 602.59 833.35 606.72 829.94 C 607.60 831.57 608.49 833.21 609.41 834.84 C 613.92 835.45 618.91 836.57 623.12 834.18 C 625.00 833.24 624.67 830.83 624.93 829.10 C 625.16 819.40 624.90 809.70 625.02 800.00 C 625.00 791.93 625.30 783.20 620.83 776.09 C 615.99 768.49 606.63 765.40 598.04 764.85 C 587.88 764.43 577.10 766.51 569.00 773.00 M 707.61 775.60 C 698.80 786.46 696.81 801.87 700.97 815.03 C 703.11 822.01 707.78 828.16 713.93 832.10 C 725.23 839.11 740.12 839.40 752.17 834.12 C 755.78 832.40 759.81 830.38 761.54 826.56 C 763.10 822.00 759.58 816.50 755.00 815.50 C 750.29 816.34 746.49 819.61 741.95 821.00 C 735.27 823.27 726.82 822.65 721.87 817.13 C 719.13 814.31 718.18 810.40 717.26 806.72 C 730.84 806.03 744.45 806.72 758.04 806.47 C 760.12 806.36 763.11 806.15 763.64 803.62 C 766.29 790.02 761.14 773.32 747.58 767.48 C 734.36 762.41 717.07 764.22 707.61 775.60 M 794.83 774.37 C 793.72 771.70 792.68 769.02 791.52 766.39 C 787.03 765.95 782.22 765.10 777.94 766.96 C 775.71 768.46 775.85 771.57 775.66 773.96 C 775.64 791.64 775.73 809.33 775.72 827.01 C 775.79 829.44 775.69 832.00 776.76 834.26 C 780.55 836.07 784.95 835.65 789.02 835.30 C 791.23 835.09 794.14 834.21 794.30 831.55 C 795.28 820.06 793.93 808.48 794.94 797.00 C 795.42 791.53 798.94 786.04 804.36 784.42 C 808.52 783.60 812.79 784.31 816.99 784.38 C 818.94 779.08 819.84 773.15 818.29 767.65 C 816.11 764.46 811.52 765.24 808.22 765.51 C 802.51 765.99 798.25 770.17 794.83 774.37 M 428.31 766.38 C 425.53 766.68 424.01 769.34 424.24 771.96 C 424.10 790.66 424.18 809.37 424.14 828.08 C 424.36 830.15 423.90 832.81 425.65 834.35 C 430.41 835.92 435.75 835.79 440.57 834.51 C 443.15 833.57 442.60 830.24 442.84 828.08 C 442.73 810.03 442.74 791.98 442.76 773.94 C 442.61 771.23 442.65 767.47 439.66 766.28 C 435.96 765.29 432.02 765.69 428.31 766.38 M 631.88 769.18 C 630.67 772.09 632.17 775.22 633.03 778.04 C 639.11 793.63 645.09 809.26 651.24 824.83 C 652.44 828.10 653.90 831.40 654.03 834.93 C 653.66 838.22 651.77 841.19 649.51 843.53 C 646.05 846.86 640.62 846.14 636.85 848.89 C 633.34 852.13 632.98 859.19 637.28 861.89 C 645.22 863.91 653.99 861.43 660.19 856.20 C 667.49 849.41 671.24 839.92 674.85 830.86 C 680.84 815.52 686.89 800.21 692.79 784.84 C 694.47 780.27 696.70 775.83 697.44 770.99 C 697.97 767.90 694.40 766.47 691.95 766.06 C 688.17 765.56 684.10 765.18 680.45 766.48 C 676.68 769.72 676.31 775.20 674.56 779.59 C 670.99 789.51 668.83 799.91 664.71 809.63 C 659.21 796.20 655.77 782.00 650.46 768.51 C 649.46 765.29 645.70 765.55 643.00 765.44 C 639.13 765.50 634.39 765.80 631.88 769.18 Z" />
<path fill="#1e293a" opacity="1.00" d=" M 485.72 376.48 C 486.59 377.95 487.40 379.49 487.84 381.16 C 492.38 399.91 502.15 416.97 513.81 432.17 C 532.29 456.54 557.34 476.00 585.86 487.18 C 590.73 488.95 595.66 490.58 600.54 492.37 C 602.85 516.99 601.61 542.34 594.01 566.01 C 589.62 580.05 581.98 593.12 571.41 603.40 C 561.29 612.91 549.30 620.44 536.29 625.31 C 522.54 631.20 507.64 633.58 492.90 635.47 C 475.62 636.98 458.02 635.54 441.34 630.73 C 421.18 625.51 401.95 615.63 387.03 600.96 C 377.90 592.30 370.61 581.74 365.87 570.07 C 356.76 547.64 354.89 522.86 357.28 498.94 C 360.62 464.34 371.62 431.00 385.15 399.14 C 387.60 393.80 389.29 388.03 392.88 383.28 C 394.24 394.48 394.57 405.84 397.17 416.88 C 401.51 434.96 408.39 452.64 419.03 467.98 C 426.73 478.75 436.01 488.46 446.79 496.19 C 459.84 505.59 474.90 512.67 490.96 514.72 C 494.73 515.04 498.69 515.51 502.36 514.31 C 504.28 513.94 504.81 511.70 504.49 510.04 C 503.83 507.21 502.08 504.84 500.55 502.43 C 494.86 493.93 491.42 484.18 488.54 474.44 C 478.89 442.74 479.99 408.79 485.72 376.48 Z" />
<path fill="#1e293a" opacity="1.00" d=" M 316.98 409.00 C 317.76 407.28 319.90 407.06 321.54 407.36 C 323.32 408.16 324.41 409.91 325.58 411.41 C 328.99 416.27 331.71 421.57 335.27 426.34 C 340.62 422.75 345.04 418.01 350.08 414.04 C 352.93 411.82 356.88 409.65 360.44 411.61 C 362.04 413.88 361.07 416.51 359.29 418.31 C 353.96 424.66 346.57 428.82 340.93 434.84 C 339.95 435.63 340.88 436.81 341.24 437.66 C 344.74 444.06 349.49 449.80 352.28 456.58 C 353.25 459.20 349.99 460.64 348.36 462.04 C 342.31 455.93 338.38 448.18 332.77 441.72 C 327.41 446.75 322.87 452.54 317.91 457.95 C 316.63 458.95 315.42 461.04 313.55 460.42 C 310.99 459.84 309.55 456.58 311.18 454.41 C 315.44 446.59 322.95 441.40 328.83 434.92 C 325.65 429.29 321.68 424.16 318.43 418.58 C 316.79 415.75 315.27 412.15 316.98 409.00 Z" />
<path fill="#1e293a" opacity="1.00" d=" M 650.36 612.21 C 655.99 609.83 660.20 616.94 658.92 621.83 C 658.58 625.90 653.41 628.15 650.12 625.88 C 645.93 622.76 645.41 614.85 650.36 612.21 Z" />
<path fill="#1e293a" opacity="1.00" d=" M 715.34 617.13 C 720.03 615.43 723.93 620.70 723.69 625.00 C 723.96 629.71 719.20 634.89 714.35 632.87 C 708.47 629.61 709.20 619.72 715.34 617.13 Z" />
<path fill="#1e293a" opacity="1.00" d=" M 478.12 757.37 C 485.89 757.29 494.41 756.44 501.35 760.64 C 509.04 767.12 507.47 781.97 497.88 785.90 C 491.60 788.39 484.70 787.95 478.10 787.62 C 477.75 777.54 477.78 767.44 478.12 757.37 Z" />
<path fill="#1e293a" opacity="1.00" d=" M 320.15 783.16 C 324.63 778.32 332.36 778.35 337.99 780.99 C 342.33 783.19 343.84 788.13 344.97 792.50 C 335.23 792.59 325.48 792.43 315.74 792.63 C 316.72 789.29 317.57 785.67 320.15 783.16 Z" />
<path fill="#1e293a" opacity="1.00" d=" M 721.78 783.78 C 727.13 777.63 737.95 777.56 743.36 783.66 C 745.45 785.99 746.01 789.18 746.87 792.09 C 737.26 792.73 727.64 792.45 718.03 792.11 C 718.97 789.22 719.65 786.07 721.78 783.78 Z" />
<path fill="#1e293a" opacity="1.00" d=" M 587.44 809.50 C 593.42 806.16 600.56 805.89 607.21 806.83 C 606.59 810.79 606.39 815.32 603.28 818.29 C 599.19 822.12 592.72 823.79 587.48 821.51 C 582.93 819.27 583.03 811.84 587.44 809.50 Z" />
</g>
<g id="#ffffffff">
<path fill="#ffffff" opacity="1.00" d=" M 356.28 195.21 C 398.99 174.97 445.82 163.67 493.03 161.87 C 537.97 160.28 583.41 165.51 626.14 179.85 C 678.12 196.80 725.92 225.89 765.79 263.22 C 790.48 287.13 811.47 314.85 827.94 345.02 C 848.44 383.26 862.13 425.15 868.04 468.15 C 871.30 489.60 871.78 511.39 870.86 533.04 C 869.48 565.97 863.26 598.62 852.91 629.89 C 841.57 663.74 825.05 695.78 804.85 725.18 C 795.00 725.66 785.13 725.61 775.28 725.28 C 781.65 716.03 788.68 707.25 794.71 697.75 C 821.61 655.32 839.37 607.01 845.42 557.09 C 847.87 539.18 847.96 521.06 847.41 503.02 C 845.79 464.63 838.20 426.30 823.23 390.83 C 814.47 369.08 803.29 348.32 790.06 328.96 C 768.69 298.23 741.74 271.52 711.54 249.47 C 666.97 217.42 614.63 196.03 560.23 188.40 C 514.53 181.93 467.49 184.04 422.81 195.81 C 362.35 211.75 306.75 245.45 264.42 291.44 C 240.18 317.69 219.83 347.64 205.28 380.31 C 192.89 407.54 184.61 436.57 180.14 466.14 C 173.06 510.32 176.10 555.84 186.80 599.19 C 196.39 636.66 212.51 672.55 234.74 704.23 C 239.52 711.36 245.42 717.69 249.80 725.09 C 240.87 725.72 231.90 725.51 222.96 725.44 C 220.11 725.67 218.71 722.74 217.13 720.88 C 194.54 688.51 177.50 652.33 166.54 614.43 C 153.25 569.40 149.58 521.61 155.29 475.03 C 162.27 410.43 188.56 348.46 228.16 297.13 C 240.70 281.49 254.17 266.51 269.20 253.20 C 295.40 230.05 324.43 209.81 356.28 195.21 Z" />
<path fill="#ffffff" opacity="1.00" d=" M 414.45 250.50 C 438.93 239.87 465.41 234.08 492.03 232.57 C 505.99 232.44 520.03 232.20 533.90 234.15 C 550.91 236.57 567.91 240.27 583.65 247.35 C 600.35 254.11 615.20 264.60 628.95 276.09 C 631.28 278.05 633.15 280.49 635.00 282.90 C 629.73 291.10 623.85 298.98 619.90 307.94 C 618.18 311.60 617.08 315.55 615.05 319.06 C 614.23 320.95 612.01 319.64 610.57 319.51 C 599.22 316.42 587.81 313.20 576.06 312.08 C 570.37 311.69 563.84 312.29 559.73 316.72 C 555.23 321.56 554.81 328.64 555.40 334.89 C 557.16 350.98 561.09 366.85 567.21 381.85 C 572.16 394.06 578.23 406.04 586.87 416.09 C 591.83 421.82 599.09 426.51 606.99 425.29 C 616.84 423.88 623.50 415.43 628.49 407.55 C 633.95 399.36 636.38 389.71 640.95 381.07 C 655.18 386.39 669.45 393.78 685.09 392.86 C 690.73 392.97 696.04 390.85 700.99 388.33 C 705.42 392.13 709.44 396.45 714.35 399.68 C 725.39 407.38 738.42 411.64 751.66 413.58 C 751.64 415.81 751.80 418.33 749.96 419.96 C 739.22 431.78 723.06 436.70 707.61 438.27 C 709.95 452.40 714.89 466.45 713.16 480.95 C 712.45 486.26 707.88 489.64 704.23 493.05 C 707.02 513.84 710.80 534.71 718.46 554.31 C 719.15 556.21 719.76 558.14 720.34 560.08 C 709.25 559.53 698.16 558.21 687.04 558.85 C 683.23 558.99 678.72 559.28 676.00 556.04 C 668.77 548.28 662.87 539.16 654.33 532.69 C 651.72 530.87 648.68 528.85 645.35 529.28 C 642.49 530.18 640.79 532.93 639.38 535.39 C 635.02 543.59 634.06 553.03 633.24 562.13 C 632.71 567.76 633.67 573.37 633.73 579.00 C 633.67 583.93 630.00 587.67 627.66 591.69 C 620.33 603.36 616.06 617.86 619.47 631.54 C 623.13 647.65 635.98 660.91 651.41 666.36 C 641.86 679.48 625.52 688.83 608.99 686.63 C 609.64 680.20 614.66 675.60 616.54 669.60 C 610.60 672.57 605.21 676.56 598.98 678.96 C 586.16 684.81 571.95 687.06 557.93 687.00 C 553.38 687.05 548.86 686.26 544.57 684.77 C 548.13 679.28 554.22 676.33 558.56 671.57 C 571.85 657.76 579.67 639.46 583.40 620.86 C 574.32 627.50 565.18 634.14 554.97 638.97 C 518.53 657.08 475.36 660.44 436.20 649.81 C 419.67 645.53 403.64 639.04 389.30 629.71 C 378.52 623.08 369.17 614.50 360.21 605.65 C 361.66 628.41 367.72 651.77 381.91 670.05 C 385.05 674.38 389.53 677.58 392.44 682.08 C 393.07 684.89 389.78 686.00 387.61 686.35 C 374.03 688.62 360.10 683.85 349.21 675.81 C 343.87 671.99 339.92 666.66 334.87 662.52 C 336.00 668.31 338.53 673.66 341.04 678.95 C 342.13 681.02 342.32 683.37 342.27 685.68 C 329.15 686.71 315.99 681.45 306.47 672.52 C 291.18 658.41 283.27 638.01 280.44 617.75 C 279.19 610.43 279.64 602.98 278.93 595.63 C 274.93 602.58 273.00 610.45 271.21 618.20 C 268.42 631.18 269.35 645.74 277.07 656.94 C 279.82 661.22 284.36 663.75 287.92 667.24 C 287.89 669.91 285.42 671.70 282.90 671.69 C 273.13 672.23 263.33 667.31 257.50 659.53 C 251.12 650.70 247.91 639.79 247.60 628.96 C 247.05 613.26 250.98 597.82 256.14 583.12 C 261.82 565.86 268.97 549.06 273.38 531.39 C 276.90 517.57 278.75 503.28 278.45 489.00 C 278.12 466.87 280.48 444.73 285.20 423.12 C 294.85 378.40 314.85 335.60 345.03 301.03 C 364.13 279.42 388.06 262.12 414.45 250.50 M 485.72 376.48 C 479.99 408.79 478.89 442.74 488.54 474.44 C 491.42 484.18 494.86 493.93 500.55 502.43 C 502.08 504.84 503.83 507.21 504.49 510.04 C 504.81 511.70 504.28 513.94 502.36 514.31 C 498.69 515.51 494.73 515.04 490.96 514.72 C 474.90 512.67 459.84 505.59 446.79 496.19 C 436.01 488.46 426.73 478.75 419.03 467.98 C 408.39 452.64 401.51 434.96 397.17 416.88 C 394.57 405.84 394.24 394.48 392.88 383.28 C 389.29 388.03 387.60 393.80 385.15 399.14 C 371.62 431.00 360.62 464.34 357.28 498.94 C 354.89 522.86 356.76 547.64 365.87 570.07 C 370.61 581.74 377.90 592.30 387.03 600.96 C 401.95 615.63 421.18 625.51 441.34 630.73 C 458.02 635.54 475.62 636.98 492.90 635.47 C 507.64 633.58 522.54 631.20 536.29 625.31 C 549.30 620.44 561.29 612.91 571.41 603.40 C 581.98 593.12 589.62 580.05 594.01 566.01 C 601.61 542.34 602.85 516.99 600.54 492.37 C 595.66 490.58 590.73 488.95 585.86 487.18 C 557.34 476.00 532.29 456.54 513.81 432.17 C 502.15 416.97 492.38 399.91 487.84 381.16 C 487.40 379.49 486.59 377.95 485.72 376.48 M 316.98 409.00 C 315.27 412.15 316.79 415.75 318.43 418.58 C 321.68 424.16 325.65 429.29 328.83 434.92 C 322.95 441.40 315.44 446.59 311.18 454.41 C 309.55 456.58 310.99 459.84 313.55 460.42 C 315.42 461.04 316.63 458.95 317.91 457.95 C 322.87 452.54 327.41 446.75 332.77 441.72 C 338.38 448.18 342.31 455.93 348.36 462.04 C 349.99 460.64 353.25 459.20 352.28 456.58 C 349.49 449.80 344.74 444.06 341.24 437.66 C 340.88 436.81 339.95 435.63 340.93 434.84 C 346.57 428.82 353.96 424.66 359.29 418.31 C 361.07 416.51 362.04 413.88 360.44 411.61 C 356.88 409.65 352.93 411.82 350.08 414.04 C 345.04 418.01 340.62 422.75 335.27 426.34 C 331.71 421.57 328.99 416.27 325.58 411.41 C 324.41 409.91 323.32 408.16 321.54 407.36 C 319.90 407.06 317.76 407.28 316.98 409.00 Z" />
<path fill="#ffffff" opacity="1.00" d=" M 665.66 268.73 C 669.94 267.34 675.62 266.09 678.93 270.11 C 684.06 276.40 686.49 284.39 688.97 292.00 C 696.18 317.96 702.00 344.80 700.60 371.90 C 700.17 376.80 699.32 383.06 694.18 385.23 C 687.27 388.03 679.51 387.09 672.40 385.64 C 664.66 383.90 657.10 381.41 649.86 378.19 C 646.10 376.67 642.30 374.69 638.14 374.81 C 635.11 376.42 634.20 380.04 632.98 382.99 C 628.71 395.19 623.18 407.59 613.19 416.22 C 609.08 419.92 602.55 420.06 598.06 416.94 C 588.61 410.53 582.70 400.32 577.76 390.28 C 570.22 375.20 565.62 358.83 562.49 342.32 C 561.43 336.08 560.78 329.55 562.49 323.38 C 563.42 319.69 567.56 318.23 570.98 318.07 C 587.67 317.96 603.08 326.01 619.62 326.99 C 623.33 314.88 628.29 303.08 635.81 292.81 C 643.27 282.28 653.36 273.11 665.66 268.73 Z" />
<path fill="#ffffff" opacity="1.00" d=" M 429.40 737.53 C 433.40 736.80 437.87 737.28 441.21 739.77 C 446.63 743.77 446.90 753.30 441.10 757.10 C 436.60 759.96 430.21 760.36 425.69 757.32 C 418.72 752.44 420.66 739.15 429.40 737.53 Z" />
<path fill="#ffffff" opacity="1.00" d=" M 209.25 741.20 C 213.28 739.63 217.76 739.79 222.00 740.12 C 225.39 740.32 227.20 743.56 228.97 746.02 C 239.49 762.15 250.07 778.25 260.45 794.48 C 261.89 796.67 263.64 798.62 265.49 800.46 C 266.11 792.99 265.38 785.51 265.39 778.03 C 265.34 767.66 265.24 757.29 265.28 746.92 C 265.30 744.52 265.66 741.29 268.41 740.53 C 272.61 739.51 277.20 739.42 281.35 740.75 C 284.19 742.31 283.75 746.16 284.02 748.93 C 284.13 774.63 284.06 800.33 284.11 826.03 C 284.15 828.95 283.56 831.83 282.83 834.65 C 277.08 835.41 271.12 836.01 265.41 834.60 C 264.11 833.53 263.18 832.11 262.25 830.74 C 251.74 814.29 240.95 798.01 230.37 781.61 C 228.76 779.16 227.00 776.82 225.14 774.57 C 225.25 787.05 225.82 799.52 225.72 812.00 C 225.57 819.57 226.26 827.20 225.06 834.72 C 219.37 835.62 213.60 835.54 207.89 834.84 C 206.18 829.03 206.81 822.95 206.75 817.00 C 206.79 793.98 206.78 770.96 206.73 747.95 C 206.88 745.59 206.72 742.37 209.25 741.20 Z" />
<path fill="#ffffff" opacity="1.00" d=" M 463.56 740.62 C 470.93 738.95 478.55 740.10 486.03 739.78 C 494.74 739.45 503.71 740.55 511.59 744.46 C 518.36 747.90 523.34 754.41 525.25 761.73 C 527.60 770.63 526.96 780.46 522.84 788.76 C 519.34 795.57 512.38 799.84 505.41 802.43 C 496.63 805.73 487.13 804.58 477.97 804.87 C 477.76 813.27 478.23 821.67 477.95 830.07 C 477.77 831.75 477.73 834.26 475.69 834.78 C 470.42 836.23 464.89 835.38 459.63 834.32 C 459.14 829.22 459.06 824.10 459.17 819.00 C 459.20 795.30 459.24 771.61 459.23 747.92 C 459.02 744.89 460.33 741.41 463.56 740.62 M 478.12 757.37 C 477.78 767.44 477.75 777.54 478.10 787.62 C 484.70 787.95 491.60 788.39 497.88 785.90 C 507.47 781.97 509.04 767.12 501.35 760.64 C 494.41 756.44 485.89 757.29 478.12 757.37 Z" />
<path fill="#ffffff" opacity="1.00" d=" M 539.38 740.52 C 542.78 739.65 546.40 739.54 549.86 740.18 C 551.90 740.62 554.41 741.81 554.55 744.20 C 555.10 748.10 554.82 752.06 554.86 756.00 C 554.85 779.69 554.87 803.37 554.95 827.06 C 554.79 829.31 555.04 831.80 553.83 833.81 C 549.36 835.99 543.97 835.84 539.17 834.97 C 536.32 834.56 536.51 831.23 536.40 829.08 C 536.35 801.69 536.39 774.31 536.36 746.93 C 536.42 744.57 536.45 741.11 539.38 740.52 Z" />
<path fill="#ffffff" opacity="1.00" d=" M 313.67 768.69 C 322.27 764.16 332.61 763.81 341.92 766.07 C 351.15 768.30 358.42 776.03 360.93 785.07 C 362.58 791.16 363.49 797.77 361.96 803.97 C 361.23 806.56 358.19 806.38 356.04 806.51 C 342.58 806.50 329.12 806.45 315.66 806.47 C 316.17 809.79 316.98 813.18 319.14 815.86 C 323.50 821.88 331.94 823.31 338.78 821.49 C 343.81 820.29 347.92 816.65 353.04 815.77 C 356.83 815.99 358.90 820.01 359.89 823.24 C 361.19 827.01 357.64 829.99 354.81 831.78 C 342.88 839.16 326.96 839.79 314.42 833.56 C 306.90 829.58 301.09 822.52 298.62 814.38 C 296.12 806.25 296.16 797.43 298.26 789.22 C 300.47 780.75 305.80 772.80 313.67 768.69 M 320.15 783.16 C 317.57 785.67 316.72 789.29 315.74 792.63 C 325.48 792.43 335.23 792.59 344.97 792.50 C 343.84 788.13 342.33 783.19 337.99 780.99 C 332.36 778.35 324.63 778.32 320.15 783.16 Z" />
<path fill="#ffffff" opacity="1.00" d=" M 391.38 774.74 C 395.07 770.12 399.87 765.69 406.12 765.43 C 409.83 764.88 415.71 765.20 416.22 770.02 C 416.54 774.70 416.26 779.83 413.79 783.95 C 409.21 784.63 404.30 782.91 399.96 785.04 C 394.78 787.25 392.11 792.90 391.58 798.24 C 390.66 808.82 391.83 819.43 391.49 830.03 C 391.24 831.65 391.50 833.96 389.55 834.61 C 385.76 836.09 381.52 835.85 377.56 835.37 C 376.10 835.04 374.30 834.93 373.38 833.60 C 372.40 831.57 372.54 829.24 372.44 827.07 C 372.50 809.04 372.38 791.01 372.43 772.98 C 372.55 770.65 372.63 767.29 375.43 766.58 C 379.36 765.60 383.66 765.22 387.59 766.40 C 390.49 768.01 390.38 771.93 391.38 774.74 Z" />
<path fill="#ffffff" opacity="1.00" d=" M 569.00 773.00 C 577.10 766.51 587.88 764.43 598.04 764.85 C 606.63 765.40 615.99 768.49 620.83 776.09 C 625.30 783.20 625.00 791.93 625.02 800.00 C 624.90 809.70 625.16 819.40 624.93 829.10 C 624.67 830.83 625.00 833.24 623.12 834.18 C 618.91 836.57 613.92 835.45 609.41 834.84 C 608.49 833.21 607.60 831.57 606.72 829.94 C 602.59 833.35 598.05 836.64 592.61 837.44 C 584.74 838.87 575.78 836.83 570.38 830.64 C 564.44 823.12 564.23 811.61 569.85 803.85 C 572.73 799.83 577.32 797.50 581.89 795.92 C 589.71 793.25 598.07 793.30 606.23 792.72 C 605.86 789.15 605.20 785.16 602.01 782.98 C 596.13 778.87 587.99 780.26 582.59 784.53 C 579.84 786.09 576.85 790.11 573.49 787.71 C 570.05 785.19 567.80 781.09 567.26 776.89 C 566.96 775.32 567.74 773.87 569.00 773.00 M 587.44 809.50 C 583.03 811.84 582.93 819.27 587.48 821.51 C 592.72 823.79 599.19 822.12 603.28 818.29 C 606.39 815.32 606.59 810.79 607.21 806.83 C 600.56 805.89 593.42 806.16 587.44 809.50 Z" />
<path fill="#ffffff" opacity="1.00" d=" M 707.61 775.60 C 717.07 764.22 734.36 762.41 747.58 767.48 C 761.14 773.32 766.29 790.02 763.64 803.62 C 763.11 806.15 760.12 806.36 758.04 806.47 C 744.45 806.72 730.84 806.03 717.26 806.72 C 718.18 810.40 719.13 814.31 721.87 817.13 C 726.82 822.65 735.27 823.27 741.95 821.00 C 746.49 819.61 750.29 816.34 755.00 815.50 C 759.58 816.50 763.10 822.00 761.54 826.56 C 759.81 830.38 755.78 832.40 752.17 834.12 C 740.12 839.40 725.23 839.11 713.93 832.10 C 707.78 828.16 703.11 822.01 700.97 815.03 C 696.81 801.87 698.80 786.46 707.61 775.60 M 721.78 783.78 C 719.65 786.07 718.97 789.22 718.03 792.11 C 727.64 792.45 737.26 792.73 746.87 792.09 C 746.01 789.18 745.45 785.99 743.36 783.66 C 737.95 777.56 727.13 777.63 721.78 783.78 Z" />
<path fill="#ffffff" opacity="1.00" d=" M 794.83 774.37 C 798.25 770.17 802.51 765.99 808.22 765.51 C 811.52 765.24 816.11 764.46 818.29 767.65 C 819.84 773.15 818.94 779.08 816.99 784.38 C 812.79 784.31 808.52 783.60 804.36 784.42 C 798.94 786.04 795.42 791.53 794.94 797.00 C 793.93 808.48 795.28 820.06 794.30 831.55 C 794.14 834.21 791.23 835.09 789.02 835.30 C 784.95 835.65 780.55 836.07 776.76 834.26 C 775.69 832.00 775.79 829.44 775.72 827.01 C 775.73 809.33 775.64 791.64 775.66 773.96 C 775.85 771.57 775.71 768.46 777.94 766.96 C 782.22 765.10 787.03 765.95 791.52 766.39 C 792.68 769.02 793.72 771.70 794.83 774.37 Z" />
<path fill="#ffffff" opacity="1.00" d=" M 428.31 766.38 C 432.02 765.69 435.96 765.29 439.66 766.28 C 442.65 767.47 442.61 771.23 442.76 773.94 C 442.74 791.98 442.73 810.03 442.84 828.08 C 442.60 830.24 443.15 833.57 440.57 834.51 C 435.75 835.79 430.41 835.92 425.65 834.35 C 423.90 832.81 424.36 830.15 424.14 828.08 C 424.18 809.37 424.10 790.66 424.24 771.96 C 424.01 769.34 425.53 766.68 428.31 766.38 Z" />
<path fill="#ffffff" opacity="1.00" d=" M 631.88 769.18 C 634.39 765.80 639.13 765.50 643.00 765.44 C 645.70 765.55 649.46 765.29 650.46 768.51 C 655.77 782.00 659.21 796.20 664.71 809.63 C 668.83 799.91 670.99 789.51 674.56 779.59 C 676.31 775.20 676.68 769.72 680.45 766.48 C 684.10 765.18 688.17 765.56 691.95 766.06 C 694.40 766.47 697.97 767.90 697.44 770.99 C 696.70 775.83 694.47 780.27 692.79 784.84 C 686.89 800.21 680.84 815.52 674.85 830.86 C 671.24 839.92 667.49 849.41 660.19 856.20 C 653.99 861.43 645.22 863.91 637.28 861.89 C 632.98 859.19 633.34 852.13 636.85 848.89 C 640.62 846.14 646.05 846.86 649.51 843.53 C 651.77 841.19 653.66 838.22 654.03 834.93 C 653.90 831.40 652.44 828.10 651.24 824.83 C 645.09 809.26 639.11 793.63 633.03 778.04 C 632.17 775.22 630.67 772.09 631.88 769.18 Z" />
</g>
<g id="#919191ff">
<path fill="#919191" opacity="1.00" d=" M 645.35 529.28 C 648.68 528.85 651.72 530.87 654.33 532.69 C 662.87 539.16 668.77 548.28 676.00 556.04 C 678.72 559.28 683.23 558.99 687.04 558.85 C 698.16 558.21 709.25 559.53 720.34 560.08 C 722.46 560.30 724.67 559.88 726.13 558.20 C 733.61 550.90 741.22 543.40 750.66 538.67 C 753.49 537.34 757.19 536.02 760.03 538.03 C 762.91 540.61 763.91 544.60 764.74 548.24 C 766.75 559.10 765.95 570.30 764.07 581.13 C 763.30 585.74 762.48 590.57 763.90 595.16 C 765.43 600.28 767.55 605.24 768.42 610.55 C 769.76 618.50 769.87 626.69 768.59 634.66 C 766.62 646.35 759.48 657.26 749.07 663.10 C 746.14 664.80 743.17 666.45 740.24 668.14 C 743.03 676.93 746.46 685.50 749.11 694.35 C 758.28 693.94 766.82 688.14 771.20 680.19 C 774.64 673.93 773.94 666.38 776.99 660.00 C 779.51 655.02 785.94 654.32 790.87 655.24 C 795.20 655.91 798.58 659.74 799.10 664.03 C 800.19 672.37 797.09 680.70 792.54 687.57 C 786.30 696.72 777.04 703.62 766.86 707.82 C 755.15 712.39 742.40 712.73 730.00 712.74 C 710.00 713.24 690.00 712.97 670.00 712.75 C 665.25 712.60 660.21 713.30 655.76 711.29 C 653.69 710.39 652.84 708.11 652.72 706.02 C 651.79 693.21 654.70 680.58 657.80 668.25 C 655.66 667.63 653.50 667.11 651.41 666.36 C 635.98 660.91 623.13 647.65 619.47 631.54 C 616.06 617.86 620.33 603.36 627.66 591.69 C 630.00 587.67 633.67 583.93 633.73 579.00 C 633.67 573.37 632.71 567.76 633.24 562.13 C 634.06 553.03 635.02 543.59 639.38 535.39 C 640.79 532.93 642.49 530.18 645.35 529.28 M 650.36 612.21 C 645.41 614.85 645.93 622.76 650.12 625.88 C 653.41 628.15 658.58 625.90 658.92 621.83 C 660.20 616.94 655.99 609.83 650.36 612.21 M 715.34 617.13 C 709.20 619.72 708.47 629.61 714.35 632.87 C 719.20 634.89 723.96 629.71 723.69 625.00 C 723.93 620.70 720.03 615.43 715.34 617.13 Z" />
</g>
</svg>
